# xmcd
#
# Track frame offsets:
#	150
#	17585
#	37093
#	56658
#
# Disc length: 1014 seconds
#
# Revision: 0
# Processed by: cddbd v1.4PL0 Copyright (c) Steve Scherf et al.
# Submitted via: dBpowerAMP V4.0
#
DISCID=2d03f404
DTITLE=1200 Techniques - Where Ur At
DYEAR=2003
DGENRE=Hip-Hop
TTITLE0=Where Ur At (Radio Edit) Original Version
TTITLE1=Where Ur At (Peep My Remix 1) Feat. Lee
TTITLE2=Where Ur At (Peep My Remix 2) Feat. Lee
TTITLE3=Where Ur At (Original Full Length Version)
EXTD=1200 Techniques is an Australian Hip Hop trio from the city of Melbourne. This is their second single 'Where Ur At' from thier latest album.
EXTT0=
EXTT1=
EXTT2=
EXTT3=
PLAYORDER=
